<mxfile host="app.diagrams.net" modified="2024-02-29T23:08:41.180Z" agent="Mozilla/5.0 (Windows NT 10.0; Win64; x64) AppleWebKit/537.36 (KHTML, like Gecko) Chrome/121.0.0.0 Safari/537.36 Edg/121.0.0.0" etag="QdEfD2xVOnYVnUHAp4L4" version="23.1.5" type="github">
  <diagram name="Página-1" id="toTfY7wNqzro0wb6UAwp">
    <mxGraphModel dx="1112" dy="473" grid="1" gridSize="10" guides="1" tooltips="1" connect="1" arrows="1" fold="1" page="1" pageScale="1" pageWidth="827" pageHeight="1169" math="0" shadow="0">
      <root>
        <mxCell id="0" />
        <mxCell id="1" parent="0" />
        <mxCell id="4x-iOvBwWhHwRvq-v5dW-1" value="Motorista" style="shape=umlActor;verticalLabelPosition=bottom;verticalAlign=top;html=1;outlineConnect=0;" parent="1" vertex="1">
          <mxGeometry x="100" y="440" width="30" height="60" as="geometry" />
        </mxCell>
        <mxCell id="4x-iOvBwWhHwRvq-v5dW-2" value="Possuir CNH" style="ellipse;whiteSpace=wrap;html=1;" parent="1" vertex="1">
          <mxGeometry x="414" y="395" width="90" height="50" as="geometry" />
        </mxCell>
        <mxCell id="4x-iOvBwWhHwRvq-v5dW-13" value="cadastrar documento" style="ellipse;whiteSpace=wrap;html=1;" parent="1" vertex="1">
          <mxGeometry x="310" y="490" width="90" height="40" as="geometry" />
        </mxCell>
        <mxCell id="4x-iOvBwWhHwRvq-v5dW-14" value="cadastrar veículo |" style="ellipse;whiteSpace=wrap;html=1;" parent="1" vertex="1">
          <mxGeometry x="270" y="395" width="100" height="45" as="geometry" />
        </mxCell>
        <mxCell id="4x-iOvBwWhHwRvq-v5dW-15" value="aguardar validação" style="ellipse;whiteSpace=wrap;html=1;" parent="1" vertex="1">
          <mxGeometry x="230" y="550" width="100" height="50" as="geometry" />
        </mxCell>
        <mxCell id="4x-iOvBwWhHwRvq-v5dW-17" value="Motorista" style="shape=umlActor;verticalLabelPosition=bottom;verticalAlign=top;html=1;outlineConnect=0;" parent="1" vertex="1">
          <mxGeometry x="100" y="750" width="30" height="60" as="geometry" />
        </mxCell>
        <mxCell id="4x-iOvBwWhHwRvq-v5dW-19" value="Fazer login" style="ellipse;whiteSpace=wrap;html=1;" parent="1" vertex="1">
          <mxGeometry x="320" y="680" width="120" height="50" as="geometry" />
        </mxCell>
        <mxCell id="4x-iOvBwWhHwRvq-v5dW-22" value="&lt;p class=&quot;MsoNormal&quot;&gt;&lt;font&gt;Aguardar passageiros&lt;/font&gt;&lt;/p&gt;" style="ellipse;whiteSpace=wrap;html=1;" parent="1" vertex="1">
          <mxGeometry x="409" y="740" width="110" height="60" as="geometry" />
        </mxCell>
        <mxCell id="4x-iOvBwWhHwRvq-v5dW-26" value="listar viagens" style="ellipse;whiteSpace=wrap;html=1;" parent="1" vertex="1">
          <mxGeometry x="590" y="725" width="110" height="40" as="geometry" />
        </mxCell>
        <mxCell id="4x-iOvBwWhHwRvq-v5dW-27" value="aceitar viagens" style="ellipse;whiteSpace=wrap;html=1;" parent="1" vertex="1">
          <mxGeometry x="590" y="800" width="110" height="50" as="geometry" />
        </mxCell>
        <mxCell id="4x-iOvBwWhHwRvq-v5dW-28" value="iniciar viagem" style="ellipse;whiteSpace=wrap;html=1;" parent="1" vertex="1">
          <mxGeometry x="400" y="820" width="110" height="50" as="geometry" />
        </mxCell>
        <mxCell id="4x-iOvBwWhHwRvq-v5dW-29" value="finalizar viagem" style="ellipse;whiteSpace=wrap;html=1;" parent="1" vertex="1">
          <mxGeometry x="400" y="890" width="100" height="50" as="geometry" />
        </mxCell>
        <mxCell id="4x-iOvBwWhHwRvq-v5dW-32" value="cancelar viagem" style="ellipse;whiteSpace=wrap;html=1;" parent="1" vertex="1">
          <mxGeometry x="180" y="860" width="100" height="50" as="geometry" />
        </mxCell>
        <mxCell id="4x-iOvBwWhHwRvq-v5dW-33" value="avaliar viagem" style="ellipse;whiteSpace=wrap;html=1;" parent="1" vertex="1">
          <mxGeometry x="280" y="930" width="100" height="50" as="geometry" />
        </mxCell>
        <mxCell id="4x-iOvBwWhHwRvq-v5dW-34" value="" style="endArrow=classic;html=1;rounded=0;exitX=0.5;exitY=0.5;exitDx=0;exitDy=0;exitPerimeter=0;entryX=0;entryY=0.5;entryDx=0;entryDy=0;" parent="1" source="4x-iOvBwWhHwRvq-v5dW-17" target="4x-iOvBwWhHwRvq-v5dW-114" edge="1">
          <mxGeometry width="50" height="50" relative="1" as="geometry">
            <mxPoint x="490" y="800" as="sourcePoint" />
            <mxPoint x="175" y="780" as="targetPoint" />
          </mxGeometry>
        </mxCell>
        <mxCell id="4x-iOvBwWhHwRvq-v5dW-44" value="" style="endArrow=classic;html=1;rounded=0;entryX=0.7;entryY=0.967;entryDx=0;entryDy=0;dashed=1;exitX=0.6;exitY=0.02;exitDx=0;exitDy=0;exitPerimeter=0;entryPerimeter=0;" parent="1" source="4x-iOvBwWhHwRvq-v5dW-33" target="4x-iOvBwWhHwRvq-v5dW-114" edge="1">
          <mxGeometry width="50" height="50" relative="1" as="geometry">
            <mxPoint x="370" y="860" as="sourcePoint" />
            <mxPoint x="243.97000000000003" y="804" as="targetPoint" />
          </mxGeometry>
        </mxCell>
        <mxCell id="4x-iOvBwWhHwRvq-v5dW-45" value="" style="endArrow=classic;html=1;rounded=0;exitX=1;exitY=1;exitDx=0;exitDy=0;dashed=1;" parent="1" source="4x-iOvBwWhHwRvq-v5dW-114" target="4x-iOvBwWhHwRvq-v5dW-29" edge="1">
          <mxGeometry width="50" height="50" relative="1" as="geometry">
            <mxPoint x="268.8908729652601" y="797.6776695296637" as="sourcePoint" />
            <mxPoint x="390" y="915" as="targetPoint" />
          </mxGeometry>
        </mxCell>
        <mxCell id="4x-iOvBwWhHwRvq-v5dW-46" value="" style="endArrow=classic;html=1;rounded=0;exitX=0.94;exitY=0.733;exitDx=0;exitDy=0;dashed=1;exitPerimeter=0;" parent="1" source="4x-iOvBwWhHwRvq-v5dW-114" target="4x-iOvBwWhHwRvq-v5dW-28" edge="1">
          <mxGeometry width="50" height="50" relative="1" as="geometry">
            <mxPoint x="283.02" y="796" as="sourcePoint" />
            <mxPoint x="460" y="875" as="targetPoint" />
          </mxGeometry>
        </mxCell>
        <mxCell id="4x-iOvBwWhHwRvq-v5dW-47" value="" style="endArrow=classic;html=1;rounded=0;entryX=0.009;entryY=0.32;entryDx=0;entryDy=0;dashed=1;entryPerimeter=0;exitX=1;exitY=0.5;exitDx=0;exitDy=0;" parent="1" source="4x-iOvBwWhHwRvq-v5dW-22" target="4x-iOvBwWhHwRvq-v5dW-27" edge="1">
          <mxGeometry width="50" height="50" relative="1" as="geometry">
            <mxPoint x="480" y="780" as="sourcePoint" />
            <mxPoint x="470" y="845" as="targetPoint" />
          </mxGeometry>
        </mxCell>
        <mxCell id="4x-iOvBwWhHwRvq-v5dW-49" value="" style="endArrow=classic;html=1;rounded=0;exitX=0.5;exitY=0;exitDx=0;exitDy=0;dashed=1;" parent="1" source="4x-iOvBwWhHwRvq-v5dW-32" target="4x-iOvBwWhHwRvq-v5dW-114" edge="1">
          <mxGeometry width="50" height="50" relative="1" as="geometry">
            <mxPoint x="290" y="830" as="sourcePoint" />
            <mxPoint x="219" y="806" as="targetPoint" />
          </mxGeometry>
        </mxCell>
        <mxCell id="4x-iOvBwWhHwRvq-v5dW-51" value="" style="endArrow=classic;html=1;rounded=0;exitX=1;exitY=0;exitDx=0;exitDy=0;entryX=0;entryY=0.5;entryDx=0;entryDy=0;dashed=1;" parent="1" source="4x-iOvBwWhHwRvq-v5dW-22" target="4x-iOvBwWhHwRvq-v5dW-26" edge="1">
          <mxGeometry width="50" height="50" relative="1" as="geometry">
            <mxPoint x="710" y="850" as="sourcePoint" />
            <mxPoint x="710" y="905" as="targetPoint" />
          </mxGeometry>
        </mxCell>
        <mxCell id="4x-iOvBwWhHwRvq-v5dW-52" value="" style="endArrow=classic;html=1;rounded=0;exitX=1;exitY=0;exitDx=0;exitDy=0;entryX=0.092;entryY=0.8;entryDx=0;entryDy=0;dashed=1;entryPerimeter=0;" parent="1" target="4x-iOvBwWhHwRvq-v5dW-19" edge="1">
          <mxGeometry width="50" height="50" relative="1" as="geometry">
            <mxPoint x="268.8908729652601" y="762.3223304703365" as="sourcePoint" />
            <mxPoint x="340" y="715" as="targetPoint" />
          </mxGeometry>
        </mxCell>
        <mxCell id="4x-iOvBwWhHwRvq-v5dW-57" value="" style="endArrow=classic;html=1;rounded=0;entryX=0;entryY=0.5;entryDx=0;entryDy=0;dashed=1;exitX=0.944;exitY=0.7;exitDx=0;exitDy=0;exitPerimeter=0;" parent="1" source="4x-iOvBwWhHwRvq-v5dW-113" target="4x-iOvBwWhHwRvq-v5dW-13" edge="1">
          <mxGeometry width="50" height="50" relative="1" as="geometry">
            <mxPoint x="244.61738218995742" y="495.78638743259944" as="sourcePoint" />
            <mxPoint x="370" y="585" as="targetPoint" />
          </mxGeometry>
        </mxCell>
        <mxCell id="4x-iOvBwWhHwRvq-v5dW-58" value="" style="endArrow=classic;html=1;rounded=0;dashed=1;exitX=0.989;exitY=0.333;exitDx=0;exitDy=0;exitPerimeter=0;" parent="1" source="4x-iOvBwWhHwRvq-v5dW-113" target="4x-iOvBwWhHwRvq-v5dW-14" edge="1">
          <mxGeometry width="50" height="50" relative="1" as="geometry">
            <mxPoint x="230.2855360270114" y="465.8230782461894" as="sourcePoint" />
            <mxPoint x="720" y="575" as="targetPoint" />
          </mxGeometry>
        </mxCell>
        <mxCell id="4x-iOvBwWhHwRvq-v5dW-106" value="" style="endArrow=classic;html=1;rounded=0;dashed=1;exitX=0.7;exitY=0.983;exitDx=0;exitDy=0;exitPerimeter=0;" parent="1" source="4x-iOvBwWhHwRvq-v5dW-113" target="4x-iOvBwWhHwRvq-v5dW-15" edge="1">
          <mxGeometry width="50" height="50" relative="1" as="geometry">
            <mxPoint x="203.02999999999997" y="508" as="sourcePoint" />
            <mxPoint x="258" y="509" as="targetPoint" />
          </mxGeometry>
        </mxCell>
        <mxCell id="4x-iOvBwWhHwRvq-v5dW-110" value="" style="endArrow=classic;html=1;rounded=0;dashed=1;exitX=1;exitY=0.5;exitDx=0;exitDy=0;entryX=0;entryY=0.5;entryDx=0;entryDy=0;" parent="1" source="4x-iOvBwWhHwRvq-v5dW-14" target="4x-iOvBwWhHwRvq-v5dW-2" edge="1">
          <mxGeometry width="50" height="50" relative="1" as="geometry">
            <mxPoint x="410" y="440" as="sourcePoint" />
            <mxPoint x="420" y="370" as="targetPoint" />
          </mxGeometry>
        </mxCell>
        <mxCell id="4x-iOvBwWhHwRvq-v5dW-113" value="[RF001] cadastrar-se" style="ellipse;whiteSpace=wrap;html=1;" parent="1" vertex="1">
          <mxGeometry x="150" y="440" width="90" height="60" as="geometry" />
        </mxCell>
        <mxCell id="4x-iOvBwWhHwRvq-v5dW-114" value="[RF002] fazer viagens" style="ellipse;whiteSpace=wrap;html=1;" parent="1" vertex="1">
          <mxGeometry x="180" y="750" width="100" height="60" as="geometry" />
        </mxCell>
        <mxCell id="4x-iOvBwWhHwRvq-v5dW-115" value="" style="endArrow=classic;html=1;rounded=0;exitX=0.5;exitY=0.5;exitDx=0;exitDy=0;exitPerimeter=0;entryX=0;entryY=0.5;entryDx=0;entryDy=0;" parent="1" source="4x-iOvBwWhHwRvq-v5dW-1" target="4x-iOvBwWhHwRvq-v5dW-113" edge="1">
          <mxGeometry width="50" height="50" relative="1" as="geometry">
            <mxPoint x="130" y="450" as="sourcePoint" />
            <mxPoint x="195" y="450" as="targetPoint" />
          </mxGeometry>
        </mxCell>
        <mxCell id="4x-iOvBwWhHwRvq-v5dW-116" value="&lt;h1&gt;[RF001]&lt;/h1&gt;&lt;div&gt;&lt;font&gt;tela de cadastro de novo motorista com as funcionalidades de envio de documentos para aprovação.&lt;/font&gt;&lt;/div&gt;&lt;div&gt;&lt;span style=&quot;background-color: initial;&quot;&gt;[x]&amp;nbsp;essencial []importante []desejável&lt;/span&gt;&lt;/div&gt;" style="text;html=1;spacing=5;spacingTop=-20;whiteSpace=wrap;overflow=hidden;rounded=0;" parent="1" vertex="1">
          <mxGeometry x="519" y="477" width="205" height="125" as="geometry" />
        </mxCell>
        <mxCell id="4x-iOvBwWhHwRvq-v5dW-123" value="" style="endArrow=classic;html=1;rounded=0;exitX=1;exitY=0.5;exitDx=0;exitDy=0;dashed=1;" parent="1" source="4x-iOvBwWhHwRvq-v5dW-114" target="4x-iOvBwWhHwRvq-v5dW-22" edge="1">
          <mxGeometry width="50" height="50" relative="1" as="geometry">
            <mxPoint x="340" y="780" as="sourcePoint" />
            <mxPoint x="416" y="766" as="targetPoint" />
          </mxGeometry>
        </mxCell>
        <mxCell id="4x-iOvBwWhHwRvq-v5dW-124" value="&lt;h1&gt;[RF002]&lt;/h1&gt;&lt;div&gt;&lt;font&gt;tela de viagens para o motorista com as funcionalidades básicas&lt;/font&gt;&lt;br&gt;&lt;/div&gt;&lt;div&gt;&lt;font&gt;[x]essencial []importante []desejável&lt;br&gt;&lt;/font&gt;&lt;/div&gt;" style="text;html=1;spacing=5;spacingTop=-20;whiteSpace=wrap;overflow=hidden;rounded=0;" parent="1" vertex="1">
          <mxGeometry x="566.5" y="970" width="201" height="125" as="geometry" />
        </mxCell>
        <mxCell id="4x-iOvBwWhHwRvq-v5dW-125" value="sugerir forma de pagamento" style="ellipse;whiteSpace=wrap;html=1;" parent="1" vertex="1">
          <mxGeometry x="566.5" y="890" width="110" height="60" as="geometry" />
        </mxCell>
        <mxCell id="4x-iOvBwWhHwRvq-v5dW-126" value="" style="endArrow=classic;html=1;rounded=0;dashed=1;exitX=1;exitY=0.5;exitDx=0;exitDy=0;entryX=0;entryY=0.367;entryDx=0;entryDy=0;entryPerimeter=0;" parent="1" source="4x-iOvBwWhHwRvq-v5dW-29" target="4x-iOvBwWhHwRvq-v5dW-125" edge="1">
          <mxGeometry width="50" height="50" relative="1" as="geometry">
            <mxPoint x="470" y="950" as="sourcePoint" />
            <mxPoint x="500" y="970" as="targetPoint" />
          </mxGeometry>
        </mxCell>
        <mxCell id="4x-iOvBwWhHwRvq-v5dW-127" value="ter caixa de transporte pet" style="ellipse;whiteSpace=wrap;html=1;" parent="1" vertex="1">
          <mxGeometry x="180" y="660" width="100" height="50" as="geometry" />
        </mxCell>
        <mxCell id="4x-iOvBwWhHwRvq-v5dW-129" value="" style="endArrow=classic;html=1;rounded=0;exitX=0.5;exitY=0;exitDx=0;exitDy=0;dashed=1;" parent="1" source="4x-iOvBwWhHwRvq-v5dW-114" target="4x-iOvBwWhHwRvq-v5dW-127" edge="1">
          <mxGeometry width="50" height="50" relative="1" as="geometry">
            <mxPoint x="220" y="750" as="sourcePoint" />
            <mxPoint x="270" y="700" as="targetPoint" />
          </mxGeometry>
        </mxCell>
        <mxCell id="GiXaVPf9EtWz1eF1a_GR-1" value="# sesi2024" style="text;whiteSpace=wrap;html=1;" vertex="1" parent="1">
          <mxGeometry x="130" y="1140" width="90" height="40" as="geometry" />
        </mxCell>
      </root>
    </mxGraphModel>
  </diagram>
</mxfile>
